<svg width="100" height="100" viewBox="0 0 100 100" fill="none" xmlns="http://www.w3.org/2000/svg">
  <style>
    .icon-text {
      font-family: 'Courier New', monospace;
      font-size: 80px;
      font-weight: bold;
      fill: #333;
      text-anchor: middle;
      dominant-baseline: central;
      letter-spacing: -2px;
    }
    .pixel-block {
      fill: #00ff88; /* Changed to #00ff88 */
      opacity: 0.7;
    }
    .circuit-line {
      stroke: #00ff88; /* Changed to #00ff88 */
      stroke-width: 1.5;
      opacity: 0.6;
      stroke-linecap: round;
      stroke-dasharray: 3 1.5;
    }
    .glow-filter {
      filter: url(#glow);
    }
  </style>

  <defs>
    <filter id="glow" x="-50%" y="-50%" width="200%" height="200%">
      <feGaussianBlur in="SourceGraphic" stdDeviation="2" result="blur" />
      <feFlood flood-color="#00ff88" flood-opacity="0.8" result="flood" /> <!-- Changed to #00ff88 -->
      <feComposite in="flood" in2="blur" operator="in" result="glowEffect" />
      <feMerge>
        <feMergeNode in="SourceGraphic" />
        <feMergeNode in="glowEffect" />
      </feMerge>
    </filter>

    <pattern id="gridPattern" x="0" y="0" width="8" height="8" patternUnits="userSpaceOnUse">
      <rect x="0" y="0" width="4" height="4" fill="#666" opacity="0.05"/>
      <rect x="4" y="4" width="4" height="4" fill="#666" opacity="0.05"/>
    </pattern>
  </defs>

  <rect width="100%" height="100%" fill="none"/>
  <text x="50" y="50" class="icon-text glow-filter">Y</text>
  
  <path d="M 15 30 C 25 20, 35 20, 45 30" class="circuit-line"/>
  <path d="M 85 70 C 75 80, 65 80, 55 70" class="circuit-line"/>
  <path d="M 10 50 L 20 50" class="circuit-line"/>
  <path d="M 90 50 L 80 50" class="circuit-line"/>

  <rect x="10" y="10" width="6" height="6" class="pixel-block"/>
  <rect x="84" y="84" width="6" height="6" class="pixel-block"/>
  <rect x="47" y="25" width="6" height="6" class="pixel-block"/>
  <rect x="47" y="69" width="6" height="6" class="pixel-block"/>
</svg>